<?xml version="1.0" encoding="utf-8"?>
<!-- Generator: Adobe Illustrator 25.1.0, SVG Export Plug-In . SVG Version: 6.00 Build 0)  -->
<svg version="1.1" id="Layer_1" xmlns="http://www.w3.org/2000/svg" xmlns:xlink="http://www.w3.org/1999/xlink" x="0px" y="0px"
	 viewBox="0 0 143.7 100" style="enable-background:new 0 0 143.7 100;" xml:space="preserve">
<style type="text/css">
	.st0{fill:#665131;}
</style>
<g>
	<g id="Group_519-2">
		<path id="Path_280" class="st0" d="M54.5,42.2c-0.9,0.1-1.8,0.5-2.4,1.3l-4.6,5.2c-0.5,0.6-0.1,1.1,0.8,1.1h9H87
			c0.9,0,1.5-0.6,1.2-1.4l-6.9-21.9c-0.2-0.8-0.6-2-0.9-2.7L73.6,1.8c-0.2-0.8-0.9-0.9-1.4-0.3L52.3,24c-0.5,0.6-1.3,1.5-1.8,2.1
			l-20,22.5c-0.5,0.6-0.2,1,0.7,1l7.2,0c1,0,1.9-0.4,2.6-1.1L68.3,18c0.5-0.6,1.1-0.4,1.3,0.3l3.8,12.9c0.2,0.7,0.6,2,0.8,2.7
			l2.1,6.9c0.2,0.8-0.4,1.4-1.3,1.4L54.5,42.2z"/>
		<path id="Path_281" class="st0" d="M19.8,41.9c0,3.3,0,5.5,4.8,5.7c2.1,0.1,3.4,0.2,3.4,1.3c0,1.1-1.2,1.1-2,1.1
			c-2,0-5.2-0.3-11.5-0.3C9.1,49.7,4.3,50,3.3,50c-0.8,0-2,0-2-1.2c0-1.1,1.4-1.1,3.4-1.2c4.8-0.3,4.8-2.4,4.8-5.6V8.7
			c0-3.3,0-5.4-4.8-5.7C2.6,2.9,1.3,2.8,1.3,1.6c0-1.1,1.2-1.1,2-1.1c2,0,5.5,0.3,11.3,0.3c6.9,0,10-0.3,11.4-0.3c0.8,0,2,0,2,1.2
			c0,1.1-1.4,1.2-3.4,1.3c-4.8,0.3-4.8,2.4-4.8,5.4L19.8,41.9z"/>
		<path id="Path_282" class="st0" d="M135.1,10.1c0,0.8,0,1.3-1,1.3c-0.6,0-1.1-0.2-2.1-1.4c-3.1-4.3-6.3-8-14.3-8
			c-14.3,0-20.9,12.6-20.9,22.7c0,11,7.1,23.7,20.3,23.7c8,0,11.8-4.4,15.5-10.5c0.2-0.3,0.9-1.5,1.7-1.5c1.3,0,1.3,0.7,1.3,1.3
			l-0.7,6.7c-0.1,1.1-0.3,1.8-2.1,2.8c-1.4,0.8-7.2,3.2-16,3.2c-22,0-31.6-15.3-31.6-25.3c0-11,10.4-25.1,33.1-25.1
			c4,0,5.5,0.2,11.4,1.1c3.9,0.6,4.3,1.3,4.7,3.5L135.1,10.1z"/>
		<path id="Path_283" class="st0" d="M7,66.3c0,0.7,0,1.2,0.9,1.3c0.4,0,0.6,0,0.6,0.3c0,0.2-0.2,0.2-0.4,0.2c-0.4,0-1-0.1-2.1-0.1
			c-1,0-1.9,0.1-2.1,0.1c-0.1,0-0.4,0-0.4-0.3s0.3-0.3,0.6-0.3c0.9-0.1,0.9-0.5,0.9-1.3v-7.5c0-0.7,0-1.2-0.9-1.3
			c-0.4,0-0.6,0-0.6-0.3C3.6,57,3.8,57,3.9,57c0.4,0,1,0.1,2.1,0.1c1.3,0,1.8-0.1,2.1-0.1c0.1,0,0.4,0,0.4,0.3
			c0,0.2-0.3,0.3-0.6,0.3C7,57.6,7,58.1,7,58.8L7,66.3z"/>
		<path id="Path_284" class="st0" d="M19.7,65.2l-0.1-5.5c0-2.1-0.2-2.1-0.9-2.2c-0.5,0-0.8,0-0.8-0.3c0-0.2,0.3-0.2,0.4-0.2
			c0.2,0,1.2,0.1,1.4,0.1c0.3,0,1.6-0.1,1.9-0.1c0.1,0,0.3,0,0.3,0.3c0,0.2-0.2,0.3-0.7,0.3c-0.7,0.1-0.9,0.1-0.9,1.1l0,9.2
			c0,0.2,0,0.5-0.3,0.5c-0.1,0-0.3,0-0.6-0.4l-7.5-9.4l0,0l0.1,6.1c0,2.6,0.2,2.7,1,2.8c0.7,0.1,0.8,0.1,0.8,0.3
			c0,0.3-0.3,0.3-0.4,0.3c-0.2,0-0.9-0.1-1.4-0.1c-0.9,0-1.7,0.1-2,0.1c-0.1,0-0.3,0-0.3-0.2c0-0.2,0.1-0.2,0.8-0.3
			c0.8-0.1,0.8-0.2,0.8-2.6v-5.9c0-1.4-0.1-1.5-0.9-1.5c-0.4,0-0.6,0-0.6-0.3c0-0.2,0.2-0.2,0.5-0.2c0.2,0,1,0.1,1.5,0.1
			c0.5,0,0.9-0.1,1.2-0.1c0.3,0,0.5,0.4,0.6,0.5L19.7,65.2L19.7,65.2z"/>
		<path id="Path_285" class="st0" d="M28.8,66.3c0,0.7,0,1.2,0.9,1.3c0.4,0,0.6,0,0.6,0.3c0,0.3-0.2,0.3-0.4,0.3
			c-0.6,0-1.5-0.1-2.1-0.1c-0.3,0-1.7,0.1-2.1,0.1c-0.1,0-0.4,0-0.4-0.3c0-0.2,0.2-0.3,0.6-0.3C27,67.5,27,67,27,66.3v-8.2
			c0-0.5-0.1-0.5-0.5-0.5c-1.3-0.2-2.6,0.5-3.1,1.7c-0.2,0.3-0.2,0.4-0.4,0.4c-0.1,0-0.2-0.1-0.2-0.2l0-0.3l0.7-2.5
			c0.1-0.2,0.1-0.3,0.3-0.3c0.1,0,0.2,0.1,0.2,0.2c0.1,0.5,0.4,0.5,0.8,0.5h5.7c1.8,0,1.9-0.2,2-0.5c0.1-0.1,0.1-0.2,0.2-0.2
			c0.2,0,0.2,0.3,0.2,0.7l-0.1,2.2c0,0.4-0.1,0.6-0.3,0.6c-0.1,0-0.2,0-0.3-0.4c-0.3-1.7-1.2-1.7-2.3-1.7c-1,0-1.1,0-1.1,0.6
			L28.8,66.3z"/>
		<path id="Path_286" class="st0" d="M35.7,58.8c0-0.7,0-1.2-0.9-1.3c-0.4,0-0.6,0-0.6-0.3c0-0.2,0.2-0.2,0.3-0.2c0,0,0.1,0,0.4,0
			c0.4,0,1.1,0,2.6,0h0.8c1.8,0,2.7,0,3.2,0c0.5,0,0.5,0,0.5,0c0.2,0,0.2,0.1,0.2,0.6v1.6c0,0.1,0,0.3-0.2,0.3
			c-0.2,0-0.2-0.1-0.6-0.7c-0.2-0.5-0.6-1.1-3.1-1.1c-0.9,0-1,0.1-1,1v2.6c0,0.6,0,0.7,1,0.7c2,0,2.1-0.4,2.4-1.3
			c0.1-0.2,0.2-0.3,0.3-0.3c0.1,0,0.2,0.1,0.2,0.2c0,0.3-0.1,2.1-0.1,2.5c0,0.1,0.1,0.7,0.1,0.9c0,0.1,0,0.4-0.2,0.4
			c-0.1,0-0.2-0.1-0.3-0.4c-0.4-1.4-0.9-1.4-2.3-1.4c-0.8,0-1,0-1,0.5v3c0,1.3,0.4,1.5,1.9,1.5c1.1,0.1,2.2-0.5,2.6-1.5
			c0.3-0.6,0.4-0.7,0.5-0.7c0.2,0,0.2,0.2,0.2,0.3c0,0.2-0.2,1.4-0.2,2c0,0.3-0.2,0.5-0.7,0.5c-0.9,0-2.1,0-3.2,0s-1.8,0-1.9,0h-0.2
			c-0.7,0-1.2,0-1.4,0c-0.3,0-0.4,0-0.5,0c-0.1,0-0.4,0-0.4-0.3c0-0.3,0.3-0.3,0.6-0.3c0.9-0.1,0.9-0.5,0.9-1.3L35.7,58.8z"/>
		<path id="Path_287" class="st0" d="M47.3,58.6c0-0.7,0-1.1,0.8-1.1c1.3-0.1,2.4,1,2.4,2.3c0,0.1,0,0.2,0,0.3
			c0.1,1.1-0.7,2.1-1.8,2.2c-0.2,0-0.4,0-0.6,0c-0.9,0-0.9,0-0.9-0.7L47.3,58.6z M45.4,66.3c0,0.7,0,1.2-0.9,1.3
			c-0.4,0-0.6,0-0.6,0.3c0,0.3,0.2,0.2,0.4,0.2c0.3,0,1.7-0.1,2.1-0.1c0.1,0,1.8,0.1,2.1,0.1c0.1,0,0.4,0,0.4-0.2
			c0-0.3-0.2-0.3-0.6-0.3c-0.9-0.1-0.9-0.5-0.9-1.3v-3.2c0-0.3,0-0.4,0.3-0.4c0.8,0,0.9,0.1,1.3,0.8l2.1,4c0.2,0.4,0.3,0.5,0.6,0.5
			c0.2,0,0.8-0.1,1-0.1c0.3,0,1.4,0.1,1.6,0.1c0.1,0,0.3,0,0.3-0.2c0-0.2-0.1-0.3-0.7-0.3c-0.5-0.1-0.7-0.5-1.1-1.1L51,63.4
			c-0.4-0.7-0.6-0.8-0.8-1c1.4-0.1,2.4-1.3,2.4-2.6c0-0.6-0.3-2.8-3.4-2.8c-0.5,0-2.9,0.1-3.4,0.1c-0.2,0-1.1-0.1-1.3-0.1
			c-0.6,0-0.6,0-0.6,0.2c0,0.2,0.2,0.3,0.6,0.3c0.9,0.1,0.9,0.5,0.9,1.3L45.4,66.3z"/>
		<path id="Path_288" class="st0" d="M58.6,68.2c-1,0-2-0.2-2.8-0.7c-0.2-0.1-0.2-0.4-0.2-0.8c0-0.1,0-1,0.1-1.6
			c0-0.1,0-0.3,0.2-0.3c0.2,0,0.2,0.1,0.3,0.3c0.2,1.4,1.4,2.5,2.8,2.7c1.1,0,2.1-0.8,2.1-2c0-1.4-1.2-2.1-2.5-2.6
			c-1.4-0.6-2.8-1.3-2.8-3.2c0-1.6,1.2-3,3.5-3c0.8,0,1.6,0.1,2.3,0.4c0.2,0.1,0.2,0.3,0.2,1.8c0,0.4,0,0.5-0.3,0.5
			c-0.2,0-0.2-0.1-0.4-0.6c-0.1-1-1-1.7-2-1.7c-1-0.1-1.8,0.6-1.9,1.5c0,0.1,0,0.1,0,0.2c0,1.3,1,1.7,2.4,2.3c1,0.4,2.8,1.3,2.8,3.3
			c0,2-1.6,3.6-3.5,3.6C58.8,68.2,58.7,68.2,58.6,68.2"/>
		<path id="Path_289" class="st0" d="M74.1,62.5c0,2.6-1.3,5.3-3.8,5.3c-2.4,0-4.1-2.7-4.1-5.6c0-2.5,1.3-4.8,3.8-4.8
			C72.9,57.4,74.1,60.4,74.1,62.5 M76.2,62.4c-0.1-3.2-2.8-5.6-6-5.5c0,0,0,0,0,0c-3.2-0.2-5.9,2.3-6.1,5.5c0,0.1,0,0.1,0,0.2
			c0.1,3.2,2.8,5.8,6.1,5.7C73.5,68.3,76.2,65.7,76.2,62.4"/>
		<path id="Path_290" class="st0" d="M88.2,59.2c0,0.2,0,0.3-0.2,0.3c-0.1,0-0.2,0-0.4-0.3c-0.5-1.1-1.7-1.8-2.9-1.8
			c-2.9,0-4.2,2.8-4.2,5.1c0,2.5,1.4,5.3,4.1,5.3c1.6,0,2.4-1,3.1-2.4c0-0.1,0.2-0.3,0.3-0.3c0.3,0,0.3,0.2,0.3,0.3l-0.1,1.5
			c0,0.3-0.1,0.4-0.4,0.6c-1,0.5-2.1,0.8-3.3,0.7c-3.3,0.2-6.2-2.3-6.4-5.7c0,0,0,0,0,0c0-2.5,2.1-5.6,6.7-5.6
			c0.8,0,1.6,0.1,2.3,0.2c0.8,0.1,0.9,0.3,1,0.8L88.2,59.2z"/>
		<path id="Path_291" class="st0" d="M93.1,66.3c0,0.7,0,1.2,0.9,1.3c0.4,0,0.6,0,0.6,0.3c0,0.2-0.2,0.2-0.4,0.2
			c-0.4,0-1-0.1-2.1-0.1c-1,0-1.9,0.1-2.1,0.1c-0.1,0-0.4,0-0.4-0.3s0.3-0.3,0.6-0.3c0.9-0.1,0.9-0.5,0.9-1.3v-7.5
			c0-0.7,0-1.2-0.9-1.3c-0.4,0-0.6,0-0.6-0.3c0-0.2,0.2-0.2,0.4-0.2c0.4,0,1,0.1,2.1,0.1c1.3,0,1.8-0.1,2.1-0.1c0.1,0,0.4,0,0.4,0.3
			c0,0.2-0.3,0.3-0.6,0.3c-0.9,0.1-0.9,0.5-0.9,1.2L93.1,66.3z"/>
		<path id="Path_292" class="st0" d="M97.6,58.8c0-0.7,0-1.2-0.9-1.3c-0.4,0-0.6,0-0.6-0.3c0-0.2,0.2-0.2,0.4-0.2c0,0,0.1,0,0.4,0
			c0.4,0,1.1,0,2.7,0h0.8c1.8,0,2.7,0,3.2,0c0.5,0,0.5,0,0.5,0c0.2,0,0.2,0.1,0.2,0.6v1.6c0,0.1,0,0.3-0.2,0.3
			c-0.2,0-0.2-0.1-0.6-0.7c-0.2-0.5-0.6-1.1-3.1-1.1c-0.9,0-1,0.1-1,1v2.6c0,0.6,0,0.7,1,0.7c2,0,2.1-0.4,2.4-1.3
			c0.1-0.2,0.2-0.3,0.3-0.3c0.1,0,0.2,0.1,0.2,0.2c0,0.3-0.1,2.1-0.1,2.5c0,0.1,0.1,0.7,0.1,0.9c0,0.1,0,0.4-0.2,0.4
			c-0.1,0-0.3-0.1-0.3-0.4c-0.4-1.4-0.9-1.4-2.3-1.4c-0.8,0-1,0-1,0.5v3c0,1.3,0.4,1.5,1.9,1.5c1.1,0.1,2.2-0.5,2.6-1.5
			c0.3-0.6,0.4-0.7,0.5-0.7c0.2,0,0.2,0.2,0.2,0.3c0,0.2-0.2,1.4-0.2,2c0,0.3-0.2,0.5-0.7,0.5c-0.9,0-2.1,0-3.2,0c-1,0-1.8,0-1.9,0
			h-0.2c-0.7,0-1.2,0-1.5,0s-0.4,0-0.5,0c-0.1,0-0.4,0-0.4-0.3c0-0.3,0.3-0.3,0.6-0.3c0.9-0.1,0.9-0.5,0.9-1.3L97.6,58.8z"/>
		<path id="Path_293" class="st0" d="M111.7,66.3c0,0.7,0,1.2,0.9,1.3c0.4,0,0.6,0,0.6,0.3c0,0.3-0.2,0.3-0.4,0.3
			c-0.6,0-1.5-0.1-2.1-0.1c-0.3,0-1.7,0.1-2.1,0.1c-0.1,0-0.4,0-0.4-0.3c0-0.2,0.2-0.3,0.6-0.3c0.9-0.1,0.9-0.5,0.9-1.2v-8.2
			c0-0.5-0.1-0.5-0.5-0.5c-1.3-0.2-2.6,0.5-3.1,1.7c-0.2,0.3-0.2,0.4-0.4,0.4c-0.1,0-0.2-0.1-0.2-0.2l0.1-0.3l0.7-2.5
			c0.1-0.2,0.1-0.3,0.3-0.3c0.1,0,0.2,0.1,0.2,0.2c0.1,0.5,0.4,0.5,0.8,0.5h5.7c1.8,0,1.9-0.2,2-0.5c0-0.1,0.1-0.2,0.2-0.2
			c0.2,0,0.2,0.3,0.2,0.7l-0.1,2.2c0,0.4,0,0.6-0.3,0.6c-0.1,0-0.2,0-0.3-0.4c-0.3-1.7-1.2-1.7-2.3-1.7c-1,0-1.1,0-1.1,0.6
			L111.7,66.3z"/>
		<path id="Path_294" class="st0" d="M119.1,63.4c-0.3,0-0.4,0-0.4-0.2c0-0.1,0-0.2,0.1-0.3l1.1-3l1.2,3l0.1,0.3
			c0,0.1,0,0.1-0.4,0.1L119.1,63.4z M121.1,64c0.5,0,0.5,0,0.7,0.5l0.8,2.1c0.1,0.2,0.1,0.3,0.1,0.5c0,0.3-0.2,0.4-0.6,0.4
			c-0.4,0-0.6,0.1-0.6,0.3c0,0.3,0.2,0.3,0.4,0.3c0.1,0,1-0.1,2.1-0.1c0.3,0,1.8,0.1,2.1,0.1c0.1,0,0.4,0,0.4-0.2
			c0-0.2-0.2-0.3-0.5-0.3c-0.7-0.1-0.9-0.5-1.5-1.9l-2.8-6.7c-0.1-0.3-0.3-0.8-0.5-1.3c-0.3-0.7-0.3-0.8-0.5-0.8
			c-0.2,0-0.2,0-0.8,1.7c-1.2,3.1-2.7,7.2-3.3,8.3c-0.3,0.6-0.5,0.6-1.1,0.7c-0.3,0-0.5,0.1-0.5,0.3c0,0.3,0.2,0.3,0.3,0.3
			c0.2,0,1.3-0.1,1.5-0.1c0.5,0,1.6,0.1,1.7,0.1c0.4,0,0.6,0,0.6-0.3c0-0.2-0.2-0.3-0.7-0.3c-0.4,0-0.8-0.1-0.8-0.5
			c0-0.3,0.1-0.5,0.2-0.7l0.6-1.9c0.1-0.5,0.1-0.5,0.7-0.5L121.1,64z"/>
		<path id="Path_295" class="st0" d="M128.7,58.8c0-0.7,0-1.2-0.9-1.3c-0.4,0-0.6,0-0.6-0.3c0-0.2,0.2-0.2,0.4-0.2
			c0.3,0,1.2,0.1,2.2,0.1c1.1,0,1.7-0.1,2.1-0.1c0.1,0,0.4,0,0.4,0.2c0,0.3-0.3,0.3-0.6,0.3c-0.9,0-0.9,0.5-0.9,1.2v7.1
			c0,1.1,0.3,1.7,1.4,1.7c1.3,0,2.5-0.7,3.1-2c0.1-0.1,0.1-0.2,0.2-0.2c0.2,0,0.2,0.1,0.2,0.3s-0.2,1.7-0.2,2c0,0.3-0.1,0.4-0.4,0.4
			c-0.2,0-0.1-0.1-4.2-0.1c-1.1,0-2.1,0-3.2,0.1c-0.1,0-0.4,0-0.4-0.3c0-0.2,0.3-0.3,0.6-0.3c0.9-0.1,0.9-0.5,0.9-1.3V58.8z"/>
		<path id="Path_296" class="st0" d="M9,83.8c-1.1,0-2,0.1-2,0.1c-0.2,0-0.4,0-0.4-0.2c0-0.2,0.3-0.3,0.6-0.3c0.5,0,0.6-0.1,0.6-0.4
			c0-0.2-0.1-0.4-0.1-0.5l-0.8-2.1c-0.2-0.5-0.3-0.5-0.7-0.5H4.1c-0.5,0-0.5,0-0.7,0.5l-0.6,1.9c-0.1,0.2-0.1,0.5-0.2,0.8
			c0,0.4,0.4,0.5,0.8,0.5c0.5,0,0.7,0.1,0.7,0.3c0,0.2-0.2,0.2-0.6,0.2c-0.2,0-1.2-0.1-1.7-0.1c-0.2,0-1.2,0.1-1.5,0.1
			c-0.1,0-0.3,0-0.3-0.3c0-0.2,0.2-0.3,0.5-0.3c0.6,0,0.7-0.1,1.1-0.7c0.6-1.1,2.1-5.2,3.3-8.3c0.7-1.7,0.7-1.7,0.8-1.7
			c0.2,0,0.2,0.1,0.5,0.8c0.2,0.5,0.4,1,0.5,1.3l2.8,6.7c0.6,1.4,0.7,1.8,1.5,1.9c0.3,0,0.5,0.1,0.5,0.3c0,0.2-0.3,0.2-0.4,0.2
			C10.8,83.9,9.3,83.8,9,83.8 M3.9,78.6c0,0.1-0.1,0.2-0.1,0.3c0,0.2,0.1,0.2,0.4,0.2h1.7c0.4,0,0.4-0.1,0.4-0.1l-0.1-0.3l-1.2-3
			L3.9,78.6"/>
		<path id="Path_297" class="st0" d="M11.3,78.3c0-2.5,2.1-5.6,6.7-5.6c0.8,0,1.6,0.1,2.3,0.2c0.8,0.1,0.9,0.3,1,0.8l0.2,1.2
			c0,0.2,0,0.3-0.2,0.3c-0.1,0-0.2,0-0.4-0.3c-0.5-1.1-1.7-1.8-2.9-1.8c-2.9,0-4.2,2.8-4.2,5.1c0,2.5,1.4,5.3,4.1,5.3
			c1.6,0,2.4-1,3.1-2.4c0-0.1,0.2-0.3,0.4-0.3c0.3,0,0.3,0.2,0.3,0.3l-0.1,1.5c0,0.3-0.2,0.5-0.4,0.6c-1,0.5-2.1,0.7-3.3,0.7
			C14.3,84.2,11.5,81.7,11.3,78.3C11.3,78.4,11.3,78.4,11.3,78.3"/>
		<path id="Path_298" class="st0" d="M22.7,78.3c0-2.5,2.1-5.6,6.7-5.6c0.8,0,1.5,0.1,2.3,0.2c0.8,0.1,0.9,0.3,1,0.8l0.2,1.2
			c0,0.2,0,0.3-0.2,0.3c-0.1,0-0.2,0-0.4-0.3c-0.5-1.1-1.7-1.8-2.9-1.8c-2.9,0-4.2,2.8-4.2,5.1c0,2.5,1.5,5.3,4.1,5.3
			c1.6,0,2.4-1,3.1-2.4c0-0.1,0.2-0.3,0.3-0.3c0.3,0,0.3,0.2,0.3,0.3l-0.1,1.5c0,0.2-0.1,0.4-0.4,0.6c-1,0.5-2.1,0.8-3.2,0.7
			C25.8,84.2,23,81.7,22.7,78.3C22.7,78.4,22.7,78.4,22.7,78.3"/>
		<path id="Path_299" class="st0" d="M38.5,83.9c-0.3,0-2-0.1-2.1-0.1c-0.3,0-1.7,0.1-2,0.1c-0.1,0-0.4,0-0.4-0.2s0.3-0.3,0.6-0.3
			c0.9-0.1,0.9-0.5,0.9-1.3v-7.5c0-0.7,0-1.2-0.9-1.3c-0.4,0-0.6,0-0.6-0.3c0-0.2,0.1-0.2,0.7-0.2c0.2,0,1,0.1,1.2,0.1
			c0.5,0,2.8-0.1,3.4-0.1c3.1,0,3.4,2.2,3.4,2.8c0,1.4-1.1,2.5-2.4,2.6c0.4,0.2,0.7,0.6,0.8,1l1.7,3c0.4,0.6,0.6,1.1,1.1,1.1
			c0.6,0.1,0.7,0.1,0.7,0.3c0,0.2-0.2,0.2-0.3,0.2c-0.2,0-1.4-0.1-1.6-0.1c-0.1,0-0.8,0.1-1,0.1c-0.3,0-0.4-0.2-0.6-0.5l-2.1-4
			c-0.4-0.8-0.5-0.8-1.3-0.8c-0.3,0-0.3,0.1-0.3,0.4v3.2c0,0.7,0,1.2,0.9,1.3c0.4,0,0.6,0,0.6,0.3C38.9,83.9,38.7,83.9,38.5,83.9
			L38.5,83.9 M37.4,74.4v3c0,0.6,0,0.6,0.9,0.6c1.1,0.2,2.2-0.6,2.4-1.7c0-0.2,0-0.4,0-0.6c0.1-1.3-0.9-2.4-2.2-2.5
			c-0.1,0-0.2,0-0.3,0C37.4,73.3,37.4,73.7,37.4,74.4"/>
		<path id="Path_300" class="st0" d="M49.4,83.9c-1,0-1.8,0-1.9,0h-0.2c-0.7,0-1.2,0-1.4,0c-0.3,0-0.4,0-0.5,0c-0.1,0-0.4,0-0.4-0.3
			c0-0.2,0.3-0.3,0.6-0.3c0.9-0.1,0.9-0.5,0.9-1.3v-7.5c0-0.7,0-1.2-0.9-1.3c-0.4,0-0.6,0-0.6-0.3c0-0.2,0.2-0.2,0.3-0.2
			c0,0,0.1,0,0.4,0c0.4,0,1.1,0,2.6,0h0.9c1.8,0,2.7,0,3.2,0c0.5,0,0.5,0,0.5,0c0.2,0,0.2,0.1,0.2,0.5V75c0,0.1,0,0.3-0.2,0.3
			s-0.2-0.1-0.5-0.7c-0.2-0.5-0.6-1.1-3.1-1.1c-0.9,0-1,0.1-1,1V77c0,0.6,0,0.7,1,0.7c2,0,2.1-0.4,2.4-1.3c0.1-0.2,0.2-0.3,0.3-0.3
			c0.1,0,0.2,0.1,0.2,0.2c0,0.2-0.1,2.1-0.1,2.5c0,0.1,0.1,0.7,0.1,0.9c0,0.1,0,0.4-0.2,0.4c-0.2,0-0.2-0.1-0.3-0.4
			c-0.4-1.4-0.9-1.4-2.3-1.4c-0.8,0-1,0-1,0.5v3c0,1.3,0.4,1.4,1.9,1.4c1.1,0.1,2.2-0.5,2.7-1.5c0.3-0.6,0.4-0.7,0.5-0.7
			c0.1,0,0.2,0.1,0.2,0.2c0,0,0,0,0,0c0,0.2-0.2,1.4-0.2,2c0,0.3-0.2,0.5-0.7,0.5C51.7,83.9,50.4,83.9,49.4,83.9"/>
		<path id="Path_301" class="st0" d="M57.2,83.8c-0.3,0-2,0.1-2.1,0.1c-0.1,0-0.4,0-0.4-0.2c0-0.3,0.3-0.3,0.6-0.3
			c0.9-0.1,0.9-0.5,0.9-1.3v-7.5c0-0.7-0.2-1-0.6-1c-0.1,0-0.6,0.1-0.8,0.1c-0.2,0-0.2-0.1-0.2-0.2c0-0.5,3-0.7,4.6-0.7
			c1.6-0.1,3.3,0.3,4.7,1.1c1.5,1,2.3,2.6,2.4,4.4c0,3.1-2.5,5.6-5.6,5.6c-0.1,0-0.2,0-0.3,0C59.9,83.9,57.7,83.8,57.2,83.8
			 M58.2,74.7v7c0,1.1,0.3,1.8,1.7,1.8c2.6-0.2,4.6-2.4,4.4-5c0-2-1.2-5.2-4.9-5.2C58.3,73.3,58.2,73.7,58.2,74.7"/>
		<path id="Path_302" class="st0" d="M69.8,83.8c-1,0-1.9,0.1-2.1,0.1c-0.1,0-0.4,0-0.4-0.3c0-0.2,0.3-0.3,0.6-0.3
			c0.9-0.1,0.9-0.5,0.9-1.3v-7.5c0-0.7,0-1.2-0.9-1.3c-0.4,0-0.6,0-0.6-0.3c0-0.2,0.2-0.2,0.4-0.2c0.4,0,1,0.1,2.1,0.1
			c1.3,0,1.8-0.1,2.1-0.1c0.1,0,0.4,0,0.4,0.3c0,0.2-0.3,0.3-0.6,0.3c-0.9,0.1-0.9,0.5-0.9,1.2v7.5c0,0.7,0,1.2,0.9,1.3
			c0.4,0,0.6,0,0.6,0.3c0,0.2-0.2,0.2-0.4,0.2C71.6,83.9,71,83.8,69.8,83.8"/>
		<path id="Path_303" class="st0" d="M78.6,83.8c-0.3,0-1.7,0.1-2.1,0.1c-0.1,0-0.4,0-0.4-0.3c0-0.2,0.3-0.3,0.6-0.3
			c0.9-0.1,0.9-0.5,0.9-1.2v-8.2c0-0.5-0.1-0.5-0.5-0.5c-1.3-0.2-2.6,0.5-3.1,1.7c-0.2,0.3-0.3,0.4-0.4,0.4c-0.1,0-0.2-0.1-0.2-0.2
			l0.1-0.3l0.7-2.5c0-0.2,0.1-0.3,0.3-0.3c0.1,0,0.2,0.1,0.2,0.2c0.1,0.5,0.4,0.5,0.8,0.5h5.7c1.8,0,1.9-0.2,2-0.5
			c0.1-0.1,0.1-0.2,0.2-0.2c0.2,0,0.2,0.3,0.2,0.7L83.5,75c0,0.3-0.1,0.6-0.3,0.6c-0.1,0-0.2,0-0.3-0.4c-0.3-1.7-1.2-1.7-2.3-1.7
			c-1,0-1.1,0-1.1,0.6v8.1c0,0.7,0,1.2,0.9,1.3c0.4,0,0.6,0,0.6,0.3s-0.2,0.3-0.4,0.3C80.1,83.9,79.1,83.8,78.6,83.8"/>
		<path id="Path_304" class="st0" d="M91.2,83.8c-1.1,0-2,0.1-2,0.1c-0.2,0-0.4,0-0.4-0.2c0-0.2,0.3-0.3,0.6-0.3
			c0.5,0,0.6-0.1,0.6-0.4c0-0.2-0.1-0.4-0.1-0.5l-0.8-2.1c-0.2-0.5-0.3-0.5-0.7-0.5h-2.1c-0.5,0-0.5,0-0.7,0.5L85,82.1
			c-0.1,0.2-0.1,0.5-0.2,0.8c0,0.4,0.4,0.5,0.9,0.5c0.5,0,0.7,0.1,0.7,0.3c0,0.2-0.2,0.2-0.6,0.2c-0.2,0-1.2-0.1-1.7-0.1
			c-0.2,0-1.2,0.1-1.5,0.1c-0.1,0-0.3,0-0.3-0.3c0-0.2,0.2-0.3,0.5-0.3c0.6,0,0.7-0.1,1.1-0.7c0.6-1.1,2.1-5.2,3.3-8.3
			c0.7-1.7,0.7-1.7,0.8-1.7c0.2,0,0.2,0.1,0.5,0.8c0.2,0.5,0.4,1,0.5,1.3l2.7,6.7c0.6,1.4,0.8,1.8,1.5,1.9c0.3,0,0.5,0.1,0.5,0.3
			c0,0.2-0.3,0.2-0.4,0.2C93,83.9,91.5,83.8,91.2,83.8 M86.1,78.6c0,0.1-0.1,0.2-0.1,0.3c0,0.2,0.1,0.2,0.4,0.2h1.7
			c0.4,0,0.4-0.1,0.4-0.1l-0.1-0.3l-1.2-3L86.1,78.6"/>
		<path id="Path_305" class="st0" d="M97.8,83.8c-0.3,0-1.7,0.1-2.1,0.1c-0.1,0-0.4,0-0.4-0.3c0-0.2,0.2-0.3,0.6-0.3
			c0.9-0.1,0.9-0.5,0.9-1.2v-8.2c0-0.5-0.1-0.5-0.5-0.5c-1.3-0.2-2.6,0.5-3.1,1.7c-0.2,0.3-0.3,0.4-0.4,0.4c-0.1,0-0.2-0.1-0.2-0.2
			l0.1-0.3l0.7-2.5c0.1-0.2,0.1-0.3,0.3-0.3c0.1,0,0.2,0.1,0.2,0.2c0.1,0.5,0.4,0.5,0.8,0.5h5.7c1.8,0,1.9-0.2,2-0.5
			c0-0.1,0.1-0.2,0.2-0.2c0.3,0,0.3,0.3,0.3,0.7l-0.1,2.2c0,0.3,0,0.6-0.3,0.6c-0.1,0-0.2,0-0.3-0.4c-0.3-1.7-1.2-1.7-2.3-1.7
			c-1,0-1.1,0-1.1,0.6v8.1c0,0.7,0,1.2,0.9,1.3c0.4,0,0.6,0,0.6,0.3s-0.2,0.3-0.4,0.3C99.3,83.9,98.4,83.8,97.8,83.8"/>
		<path id="Path_306" class="st0" d="M106.5,83.8c-1,0-1.9,0.1-2.1,0.1c-0.1,0-0.4,0-0.4-0.3c0-0.2,0.3-0.3,0.6-0.3
			c0.9-0.1,0.9-0.5,0.9-1.3v-7.5c0-0.7,0-1.2-0.9-1.3c-0.4,0-0.6,0-0.6-0.3c0-0.2,0.2-0.2,0.4-0.2c0.4,0,1,0.1,2.1,0.1
			c1.3,0,1.8-0.1,2.1-0.1c0.1,0,0.4,0,0.4,0.3c0,0.2-0.3,0.3-0.6,0.3c-0.9,0.1-0.9,0.5-0.9,1.2v7.5c0,0.7,0,1.2,0.9,1.3
			c0.4,0,0.6,0,0.6,0.3c0,0.2-0.2,0.2-0.4,0.2C108.2,83.9,107.7,83.8,106.5,83.8"/>
		<path id="Path_307" class="st0" d="M110,78.3c0.2-3.3,3.2-5.9,6.5-5.6c2.9,0.2,5.3,2.5,5.6,5.4c-0.1,3.3-2.8,5.9-6,5.8
			C112.8,84.1,110.1,81.6,110,78.3C110,78.3,110,78.3,110,78.3 M112.1,78c0,2.9,1.7,5.6,4.1,5.6c2.5,0,3.8-2.7,3.8-5.3
			c0-2.1-1.2-5.1-4.1-5.1C113.4,73.2,112.1,75.5,112.1,78"/>
		<path id="Path_308" class="st0" d="M132.9,83.8l-7.5-9.4l0,0l0.1,6.1c0,2.6,0.2,2.7,1,2.8c0.7,0.1,0.8,0.1,0.8,0.3
			c0,0.2-0.3,0.2-0.4,0.2c-0.2,0-0.9-0.1-1.4-0.1c-0.9,0-1.7,0.1-2,0.1c-0.1,0-0.3,0-0.3-0.2c0-0.2,0.1-0.2,0.8-0.3
			c0.8-0.1,0.8-0.2,0.8-2.6v-5.9c0-1.4-0.1-1.5-0.9-1.5c-0.4,0-0.7,0-0.7-0.3c0-0.2,0.2-0.2,0.5-0.2c0.2,0,1,0.1,1.6,0.1
			c0.5,0,0.9-0.1,1.1-0.1c0.3,0,0.5,0.4,0.6,0.5l6,7.7l0,0l-0.1-5.5c0-2.1-0.2-2.1-0.9-2.2c-0.5,0-0.8,0-0.8-0.3
			c0-0.2,0.3-0.2,0.4-0.2c0.2,0,1.2,0.1,1.4,0.1c0.3,0,1.6-0.1,1.9-0.1c0.1,0,0.3,0,0.3,0.3c0,0.2-0.2,0.3-0.7,0.3
			c-0.7,0.1-0.9,0.1-0.9,1.1l0,9.3c0,0.2,0,0.5-0.3,0.5C133.4,84.2,133.3,84.2,132.9,83.8"/>
		<path id="Path_309" class="st0" d="M28.4,94.1c0-2.5,2.1-5.6,6.7-5.6c0.8,0,1.6,0.1,2.3,0.2c0.8,0.1,0.9,0.3,1,0.8l0.2,1.2
			c0,0.2,0,0.3-0.2,0.3c-0.1,0-0.2,0-0.4-0.3c-0.5-1.1-1.7-1.8-2.9-1.8c-2.9,0-4.2,2.8-4.2,5.1c0,2.5,1.5,5.3,4.1,5.3
			c1.6,0,2.4-1,3.1-2.4c0-0.1,0.2-0.3,0.4-0.3c0.3,0,0.3,0.2,0.3,0.3l-0.1,1.5c0,0.2-0.1,0.4-0.4,0.6c-1,0.5-2.1,0.8-3.3,0.7
			C31.5,100,28.6,97.5,28.4,94.1C28.4,94.2,28.4,94.1,28.4,94.1"/>
		<path id="Path_310" class="st0" d="M39.8,94.1c0.1-3.2,2.7-5.7,5.9-5.6c0.1,0,0.1,0,0.2,0c3.2-0.1,5.8,2.3,6,5.5c0,0,0,0,0,0
			c-0.1,3.3-2.8,5.9-6,5.8C42.6,99.9,39.9,97.4,39.8,94.1C39.8,94.1,39.8,94.1,39.8,94.1 M42,93.8c0,2.9,1.7,5.6,4.1,5.6
			c2.5,0,3.8-2.7,3.8-5.3c0-2.1-1.2-5.1-4.1-5.1C43.2,89,42,91.2,42,93.8"/>
		<path id="Path_311" class="st0" d="M64.2,99.6c-0.9,0-1.8,0.1-2.2,0.1c-0.1,0-0.3,0-0.3-0.2c0-0.2,0.2-0.3,0.7-0.3
			c0.8-0.1,0.8-0.5,0.8-1.3l-0.1-7.7h0l-3.4,8.7c-0.2,0.4-0.2,0.6-0.4,0.6s-0.3-0.1-0.4-0.4l-3.5-8.5h0c-0.1,2-0.2,4-0.2,5.8
			c0,2.8,0.2,2.9,1,2.9c0.4,0,0.7,0,0.7,0.3c0,0.3-0.3,0.3-0.5,0.3c-0.3,0-0.8-0.1-1.6-0.1c-0.6,0-1.3,0.1-1.6,0.1
			c-0.1,0-0.3,0-0.3-0.2c0-0.2,0.2-0.2,0.7-0.3c0.6-0.1,0.9-0.2,0.9-1.4c0-0.1,0.4-5.3,0.4-7.7c0-0.9,0-0.9-0.8-0.9
			c-0.6,0-0.7-0.1-0.7-0.3c0-0.1,0.1-0.2,0.4-0.2c0.2,0,1.2,0.1,1.6,0.1c0.6,0,1-0.1,1.2-0.1c0.2,0,0.3,0,0.5,0.4l3,7.4l2.8-7.2
			c0.2-0.6,0.4-0.6,0.7-0.6c0.4,0,1.1,0.1,1.5,0.1s0.9-0.1,1.1-0.1c0.2,0,0.4,0,0.4,0.2c0,0.2-0.2,0.2-0.7,0.3
			c-0.8,0.1-0.9,0.3-0.8,1.2l0.2,7.5c0,1.1,0.1,1.4,0.8,1.4c0.4,0,0.6,0.1,0.6,0.3c0,0.2-0.3,0.2-0.5,0.2
			C65.8,99.7,64.9,99.6,64.2,99.6"/>
		<path id="Path_312" class="st0" d="M78.5,99.6c-0.9,0-1.8,0.1-2.2,0.1c-0.1,0-0.3,0-0.3-0.2c0-0.2,0.2-0.3,0.7-0.3
			c0.8-0.1,0.8-0.5,0.8-1.3l-0.1-7.7h0L74,98.9c-0.2,0.4-0.2,0.6-0.4,0.6c-0.2,0-0.3-0.1-0.4-0.4l-3.5-8.5h0c-0.1,2-0.3,4-0.3,5.8
			c0,2.8,0.2,2.9,1,2.9c0.4,0,0.7,0,0.7,0.3c0,0.3-0.3,0.3-0.5,0.3c-0.2,0-0.8-0.1-1.6-0.1c-0.6,0-1.3,0.1-1.6,0.1
			c-0.1,0-0.3,0-0.3-0.2c0-0.2,0.2-0.2,0.7-0.3c0.6-0.1,0.9-0.2,0.9-1.4c0-0.1,0.4-5.3,0.4-7.7c0-0.9,0-0.9-0.8-0.9
			c-0.6,0-0.7-0.1-0.7-0.3c0-0.1,0.1-0.2,0.4-0.2c0.2,0,1.2,0.1,1.6,0.1c0.6,0,1-0.1,1.2-0.1c0.2,0,0.3,0,0.5,0.4l3,7.4l2.8-7.2
			c0.2-0.6,0.4-0.6,0.7-0.6c0.4,0,1.1,0.1,1.5,0.1s0.9-0.1,1.1-0.1c0.2,0,0.4,0,0.4,0.2c0,0.2-0.2,0.2-0.7,0.3
			c-0.8,0.1-0.9,0.3-0.8,1.2l0.2,7.5c0,1.1,0.1,1.4,0.8,1.4c0.4,0,0.6,0.1,0.6,0.3c0,0.2-0.3,0.2-0.5,0.2
			C80.1,99.7,79.2,99.6,78.5,99.6"/>
		<path id="Path_313" class="st0" d="M84,99.6c-1,0-1.9,0.1-2.1,0.1c-0.1,0-0.4,0-0.4-0.3c0-0.2,0.3-0.3,0.6-0.3
			c0.9-0.1,0.9-0.5,0.9-1.2v-7.5c0-0.7,0-1.2-0.9-1.3c-0.4,0-0.6,0-0.6-0.3c0-0.3,0.2-0.3,0.4-0.3c0.4,0,1,0.1,2.1,0.1
			c1.3,0,1.8-0.1,2.1-0.1c0.2,0,0.4,0,0.4,0.3c0,0.2-0.3,0.3-0.6,0.3c-0.9,0.1-0.9,0.5-0.9,1.2v7.5c0,0.8,0,1.2,0.9,1.3
			c0.4,0,0.6,0,0.6,0.3c0,0.3-0.2,0.3-0.4,0.3C85.7,99.7,85.1,99.6,84,99.6"/>
		<path id="Path_314" class="st0" d="M87.8,99.1c-0.2-0.1-0.2-0.4-0.2-0.8c0-0.1,0-1,0.1-1.6c0-0.1,0-0.3,0.2-0.3
			c0.2,0,0.2,0.1,0.2,0.3c0.2,1.4,1.4,2.5,2.8,2.7c1.1,0,2.1-0.8,2.1-2c0-1.4-1.2-2.1-2.5-2.6c-1.4-0.6-2.8-1.3-2.8-3.2
			c0-1.6,1.2-3.1,3.5-3.1c0.8,0,1.6,0.1,2.3,0.4c0.2,0.1,0.2,0.3,0.2,1.8c0,0.4,0,0.5-0.2,0.5c-0.2,0-0.3-0.1-0.4-0.7
			c-0.1-1-1-1.7-2-1.7c-1-0.1-1.8,0.6-1.9,1.5c0,0.1,0,0.1,0,0.2c0,1.3,1,1.7,2.4,2.3c1,0.4,2.8,1.3,2.8,3.3c0,2-1.6,3.6-3.5,3.6
			c-0.1,0-0.2,0-0.3,0C89.6,99.8,88.6,99.6,87.8,99.1"/>
		<path id="Path_315" class="st0" d="M96.5,99.1c-0.2-0.1-0.2-0.4-0.2-0.8c0-0.1,0-1,0.1-1.6c0-0.1,0-0.3,0.2-0.3
			c0.2,0,0.2,0.1,0.2,0.3c0.2,1.4,1.4,2.5,2.8,2.7c1.1,0,2.1-0.8,2.1-2c0-1.4-1.2-2.1-2.5-2.6c-1.4-0.6-2.8-1.3-2.8-3.2
			c0-1.6,1.2-3.1,3.5-3.1c0.8,0,1.6,0.1,2.3,0.4c0.2,0.1,0.2,0.3,0.2,1.8c0,0.4,0,0.5-0.3,0.5c-0.2,0-0.2-0.1-0.4-0.7
			c-0.1-1-1-1.7-2-1.7c-1-0.1-1.8,0.6-1.9,1.5c0,0.1,0,0.1,0,0.2c0,1.3,1,1.7,2.4,2.3c1,0.4,2.8,1.3,2.8,3.3c0,2-1.6,3.6-3.5,3.6
			c-0.1,0-0.2,0-0.3,0C98.4,99.8,97.4,99.6,96.5,99.1"/>
		<path id="Path_316" class="st0" d="M106.6,99.6c-1,0-1.9,0.1-2.1,0.1c-0.1,0-0.4,0-0.4-0.3c0-0.2,0.3-0.3,0.6-0.3
			c0.9-0.1,0.9-0.5,0.9-1.2v-7.5c0-0.7,0-1.2-0.9-1.3c-0.4,0-0.6,0-0.6-0.3c0-0.3,0.2-0.3,0.4-0.3c0.4,0,1,0.1,2.1,0.1
			c1.3,0,1.8-0.1,2.1-0.1c0.1,0,0.4,0,0.4,0.3c0,0.2-0.3,0.3-0.6,0.3c-0.9,0.1-0.9,0.5-0.9,1.2v7.5c0,0.8,0,1.2,0.9,1.3
			c0.4,0,0.6,0,0.6,0.3c0,0.3-0.2,0.3-0.4,0.3C108.3,99.7,107.7,99.6,106.6,99.6"/>
		<path id="Path_317" class="st0" d="M110,94.1c0.1-3.2,2.7-5.7,5.9-5.6c0.1,0,0.1,0,0.2,0c3.2-0.1,5.8,2.3,6,5.5c0,0,0,0,0,0
			c-0.1,3.3-2.8,5.9-6,5.8C112.9,99.9,110.1,97.4,110,94.1C110,94.1,110,94.1,110,94.1 M112.2,93.8c0,2.9,1.7,5.6,4.1,5.6
			c2.5,0,3.8-2.7,3.8-5.3c0-2.1-1.2-5.1-4.1-5.1C113.5,89,112.2,91.2,112.2,93.8"/>
		<path id="Path_318" class="st0" d="M132.9,99.6l-7.5-9.4l0,0l0.1,6.1c0,2.6,0.2,2.8,1,2.8c0.7,0.1,0.8,0.1,0.8,0.3
			c0,0.2-0.3,0.2-0.4,0.2c-0.2,0-0.9-0.1-1.4-0.1c-0.9,0-1.7,0.1-2,0.1c-0.1,0-0.3,0-0.3-0.2c0-0.2,0.1-0.2,0.8-0.3
			c0.8-0.1,0.8-0.2,0.8-2.6v-5.9c0-1.4-0.1-1.5-0.9-1.5c-0.4,0-0.7,0-0.7-0.3c0-0.2,0.2-0.2,0.5-0.2c0.2,0,1,0.1,1.6,0.1
			c0.5,0,0.9-0.1,1.1-0.1c0.3,0,0.5,0.4,0.6,0.5l6,7.7l0,0l-0.1-5.4c0-2.1-0.2-2.1-0.9-2.2c-0.5,0-0.8,0-0.8-0.3
			c0-0.3,0.3-0.2,0.4-0.2c0.2,0,1.2,0.1,1.4,0.1c0.3,0,1.6-0.1,1.9-0.1c0.1,0,0.3,0,0.3,0.3c0,0.2-0.2,0.3-0.7,0.3
			c-0.7,0.1-0.9,0.1-0.9,1.1l0,9.3c0,0.2,0,0.5-0.3,0.5C133.4,100,133.3,100,132.9,99.6"/>
		<path id="Path_319" class="st0" d="M143.7,4.3c0,1.8-1.4,3.2-3.1,3.3c-1.8,0-3.2-1.4-3.3-3.1s1.4-3.2,3.1-3.3c0,0,0.1,0,0.1,0
			C142.2,1.1,143.6,2.5,143.7,4.3C143.7,4.2,143.7,4.3,143.7,4.3 M138,4.3c0,1.3,1,2.5,2.3,2.5c0,0,0.1,0,0.1,0
			c1.3,0,2.4-1.1,2.4-2.4c0,0,0-0.1,0-0.1c0.1-1.3-1-2.5-2.3-2.5c-1.3-0.1-2.5,1-2.5,2.3C138,4.1,138,4.2,138,4.3 M140,5.9h-0.7V2.8
			c0.4-0.1,0.8-0.1,1.2-0.1c0.4,0,0.8,0,1.1,0.2c0.2,0.2,0.3,0.4,0.3,0.7c0,0.4-0.3,0.7-0.6,0.7v0c0.3,0.1,0.5,0.4,0.6,0.8
			c0,0.3,0.1,0.5,0.2,0.8h-0.8c-0.1-0.2-0.2-0.5-0.2-0.8c-0.1-0.3-0.2-0.5-0.6-0.5H140L140,5.9z M140,4.1h0.3c0.4,0,0.7-0.1,0.7-0.5
			c0-0.3-0.2-0.5-0.7-0.5c-0.1,0-0.3,0-0.4,0L140,4.1z"/>
	</g>
</g>
</svg>
